<svg width="1728" height="1117" viewBox="0 0 1728 1117" fill="none" xmlns="http://www.w3.org/2000/svg">
<g clip-path="url(#clip0_262_3456)">
<rect width="1728" height="1117" fill="white"/>
<rect width="1728" height="1117" fill="#B5BD00" fill-opacity="0.05"/>
<path d="M1462.43 1117C1435 1088.5 1439.02 1056 1441.5 1040.5C1445.75 1013.96 1458.27 1005.13 1478.45 987.954C1491.04 977.25 1506.39 969.274 1517.49 956.986C1525.34 948.294 1530.85 936.845 1529.89 925.177C1529.19 916.476 1525.01 908.462 1520.58 900.944C1511.34 885.239 1500.64 870.44 1488.62 856.743C1478.07 844.75 1466.42 833.473 1458.47 819.621C1450.52 805.768 1446.72 788.394 1453.1 773.74C1469.18 736.875 1528.54 721.267 1555.56 692.149C1584.55 660.951 1572.9 629.324 1528.79 625.365C1471.69 620.175 1414.74 634.801 1357.68 629.01C1295.81 622.703 1226.64 579.265 1251.19 509.285C1258.46 488.563 1268.36 466.839 1263.01 445.554C1258.92 429.402 1246.54 416.637 1233.22 406.628C1216.6 394.13 1198.34 384.017 1184.08 368.59C1162.87 345.655 1154.7 313.579 1157.55 282.859C1161 246.514 1176.51 212.369 1201.61 185.86C1231.82 154.099 1287.58 121.375 1297.34 75.9047C1304.03 44.7453 1281.02 18.7281 1258.96 0H1728.5V1117H1462.43Z" fill="url(#paint0_linear_262_3456)"/>
</g>
<defs>
<linearGradient id="paint0_linear_262_3456" x1="1248.85" y1="1108.75" x2="1914.96" y2="13.6879" gradientUnits="userSpaceOnUse">
<stop stop-color="#9BA300"/>
<stop offset="0.22" stop-color="#9BA300"/>
<stop offset="0.44" stop-color="#32A2C7"/>
<stop offset="0.74" stop-color="#0087C6"/>
<stop offset="1" stop-color="#0072B4"/>
</linearGradient>
<clipPath id="clip0_262_3456">
<rect width="1728" height="1117" fill="white"/>
</clipPath>
</defs>
</svg>
