<svg width="834" height="1194" viewBox="0 0 834 1194" fill="none" xmlns="http://www.w3.org/2000/svg">
<rect width="834" height="1194" fill="white"/>
<rect width="834" height="1194" fill="#FFB81D" fill-opacity="0.05"/>
<mask id="mask0_225_1434" style="mask-type:alpha" maskUnits="userSpaceOnUse" x="0" y="0" width="834" height="1194">
<rect width="834" height="1194" fill="url(#paint0_linear_225_1434)"/>
</mask>
<g mask="url(#mask0_225_1434)">
<path d="M260.074 -38.1088H1123.55C1128.54 -38.1088 1141.97 -17.2089 1143.78 -14.7779C1158.69 5.03074 1169.27 26.1418 1175.2 47.9217C1182.12 73.9916 1182.87 103.812 1171.33 129.321C1156.19 162.871 1130.6 193.396 1119.12 228.035C1107.63 262.673 1096.8 325.131 1140.59 353.203C1144.88 356.163 1150.38 358.228 1156.43 359.143C1187.15 362.971 1242.04 326.374 1263.98 315.055C1302.49 295.2 1339.86 274.41 1378.38 254.555C1431.25 227.32 1484.48 196.564 1549.79 183.441C1645.04 164.29 1697.96 206.893 1781.86 224.427C1809.13 230.136 1840.19 230.587 1865.19 221.369C1879.93 215.946 1891.68 207.52 1901.62 198.5C1942.65 161.309 1957.94 113.184 1971.53 68.8436C1973.19 63.1346 1992.77 -38.1968 1992.09 -38.1968H2304.05C2083.72 28.0888 2039.82 211.238 1856.03 303.78C1805.69 329.289 1750.65 362.179 1686.87 371.21C1662.46 374.675 1633.44 370.957 1619.72 357.152C1603.2 340.553 1610.38 318.509 1594.47 301.14C1579.88 285.223 1555.59 273.552 1527.48 270.912C1502.16 268.525 1476.33 272.012 1452.09 277.358C1376.37 294.056 1316.18 328.948 1258.76 364.258C1214.87 391.274 1181.27 424.824 1123.72 440.542C1104.18 445.877 1082.17 448.803 1061.85 445.019C977.096 429.256 1019.59 320.632 1039.75 283.43C1057.21 251.19 1080.7 220.566 1099.41 188.644C1107.02 175.697 1113.93 162.244 1114.61 148.406C1117.31 94.4294 1024.43 77.1046 958.4 83.7925C870.505 92.7025 830.205 159.494 783.773 201.767C759.161 224.185 728.101 245.162 688.15 253.467C616.341 268.393 568.247 233.931 560.187 189.425C553.158 150.287 559.057 109.565 524.59 75.0256C490.124 40.4858 438.174 14.0309 384.463 -6.74796C350.744 -19.8709 301.155 -38.1088 260.074 -38.1088Z" fill="url(#paint1_linear_225_1434)"/>
</g>
<defs>
<linearGradient id="paint0_linear_225_1434" x1="195.288" y1="-1054.71" x2="1487.28" y2="-664.225" gradientUnits="userSpaceOnUse">
<stop stop-color="#FFA01D"/>
<stop offset="0.22" stop-color="#FFA01D"/>
<stop offset="0.44" stop-color="#32A4C9"/>
<stop offset="0.74" stop-color="#0089C8"/>
<stop offset="1" stop-color="#0072B6"/>
</linearGradient>
<linearGradient id="paint1_linear_225_1434" x1="738.687" y1="-466.556" x2="1537.44" y2="990.226" gradientUnits="userSpaceOnUse">
<stop stop-color="#FFA01D"/>
<stop offset="0.22" stop-color="#FFA01D"/>
<stop offset="0.44" stop-color="#32A4C9"/>
<stop offset="0.74" stop-color="#0089C8"/>
<stop offset="1" stop-color="#0072B6"/>
</linearGradient>
</defs>
</svg>
